# xmcd
#
# Track frame offsets: 
#        150
#        19318
#        32616
#        48560
#        63196
#        79424
#        103827
#        115082
#        128930
#        144857
#        159936
#        176606
#
# Disc length: 2540 seconds
#
# Revision: 0
# Processed by: cddbd v1.5.2PL0 Copyright (c) Steve Scherf et al.
# Submitted via: ExactAudioCopy v0.99pb5
#
DISCID=9b09ea0c
DTITLE=Laura Bean - Anthology Of Rare Curiosities, Artifacts, Indulgen
DTITLE=ces And Diversions
DYEAR=2011
DGENRE=Country
TTITLE0=Lullabye
TTITLE1=Whiskey Friends
TTITLE2=Come All Ye Fair And Tender Maidens
TTITLE3=Yo* Mama
TTITLE4=Rain And Snow
TTITLE5=Moonshine Buddy Fox
TTITLE6=Who's Gonna Shoe Your Pretty Little Feet
TTITLE7=Kentucky Waltz
TTITLE8=Fields Of Gold
TTITLE9=Wayfaring Stranger
TTITLE10=Coo Coo
TTITLE11=Hard Times Come Again No More
EXTD=
EXTT0=
EXTT1=
EXTT2=
EXTT3=
EXTT4=
EXTT5=
EXTT6=
EXTT7=
EXTT8=
EXTT9=
EXTT10=
EXTT11=
PLAYORDER=
